custom-analysis
version=1
nRows=4
nColumns=98
inDegrees=no

This file contains tibia displacement and acting force.

Units are S.I. units (seconds, meters, Newtons, ...)
Angles are in degrees.

endheader
time	APT	SIT	knee_angle	aACL_R_force	pACL_R_force	aPCL_R_force	pPCL_R_force	aMCL_R_force	mMCL_R_force	pMCL_R_force	aLCL_R_force	mLCL_R_force	pLCL_R_force	aPCL_L_force	pPCL_L_force	aMCL_L_force	aLCL_L_force	aACL_R_length	pACL_R_length	aPCL_R_length	pPCL_R_length	aMCL_R_length	mMCL_R_length	pMCL_R_length	aLCL_R_length	mLCL_R_length	pLCL_R_length	aPCL_L_length	pPCL_L_length	aMCL_L_length	aLCL_L_length	aACL_R_strain	pACL_R_strain	aPCL_R_strain	pPCL_R_strain	aMCL_R_strain	mMCL_R_strain	pMCL_R_strain	aLCL_R_strain	mLCL_R_strain	pLCL_R_strain	aPCL_L_strain	pPCL_L_strain	aMCL_L_strain	aLCL_L_strain	femur_lat_meniscii_r.femur_lat_r.force.X	femur_lat_meniscii_r.femur_lat_r.force.Y	femur_lat_meniscii_r.femur_lat_r.force.Z	femur_lat_meniscii_r.femur_lat_r.torque.X	femur_lat_meniscii_r.femur_lat_r.torque.Y	femur_lat_meniscii_r.femur_lat_r.torque.Z	femur_lat_meniscii_r.meniscus_lat_r.force.X	femur_lat_meniscii_r.meniscus_lat_r.force.Y	femur_lat_meniscii_r.meniscus_lat_r.force.Z	femur_lat_meniscii_r.meniscus_lat_r.torque.X	femur_lat_meniscii_r.meniscus_lat_r.torque.Y	femur_lat_meniscii_r.meniscus_lat_r.torque.Z	femur_med_meniscii_r.femur_med_r.force.X	femur_med_meniscii_r.femur_med_r.force.Y	femur_med_meniscii_r.femur_med_r.force.Z	femur_med_meniscii_r.femur_med_r.torque.X	femur_med_meniscii_r.femur_med_r.torque.Y	femur_med_meniscii_r.femur_med_r.torque.Z	femur_med_meniscii_r.meniscus_med_r.force.X	femur_med_meniscii_r.meniscus_med_r.force.Y	femur_med_meniscii_r.meniscus_med_r.force.Z	femur_med_meniscii_r.meniscus_med_r.torque.X	femur_med_meniscii_r.meniscus_med_r.torque.Y	femur_med_meniscii_r.meniscus_med_r.torque.Z	femur_med_tibia_r.tibia_upper_r.force.X	femur_med_tibia_r.tibia_upper_r.force.Y	femur_med_tibia_r.tibia_upper_r.force.Z	femur_med_tibia_r.tibia_upper_r.torque.X	femur_med_tibia_r.tibia_upper_r.torque.Y	femur_med_tibia_r.tibia_upper_r.torque.Z	femur_med_tibia_r.femur_med_r.force.X	femur_med_tibia_r.femur_med_r.force.Y	femur_med_tibia_r.femur_med_r.force.Z	femur_med_tibia_r.femur_med_r.torque.X	femur_med_tibia_r.femur_med_r.torque.Y	femur_med_tibia_r.femur_med_r.torque.Z	femur_lat_tibia_r.tibia_upper_r.force.X	femur_lat_tibia_r.tibia_upper_r.force.Y	femur_lat_tibia_r.tibia_upper_r.force.Z	femur_lat_tibia_r.tibia_upper_r.torque.X	femur_lat_tibia_r.tibia_upper_r.torque.Y	femur_lat_tibia_r.tibia_upper_r.torque.Z	femur_lat_tibia_r.femur_lat_r.force.X	femur_lat_tibia_r.femur_lat_r.force.Y	femur_lat_tibia_r.femur_lat_r.force.Z	femur_lat_tibia_r.femur_lat_r.torque.X	femur_lat_tibia_r.femur_lat_r.torque.Y	femur_lat_tibia_r.femur_lat_r.torque.Z	femur_lat_meniscii_force_r	femur_med_meniscii_force_r	femur_lat_tibia_force_r	femur_med_tibia_force_r
      0.13469415	      0.00877781	      0.01003032	     38.93734513	     16.65972247	      8.90307288	    448.74354795	    318.87319043	      0.00000000	      0.00000000	      0.00000000	     -0.41222837	      0.00000000	      0.00000000	      0.00000000	      0.00000000	      0.00000001	      0.00000000	      0.03192332	      0.02528163	      0.03421673	      0.03204704	      0.05777086	      0.05870850	      0.05683913	      0.05628238	      0.05237562	      0.04826138	      0.01525851	      0.01651186	      0.06550154	      0.04489616	      0.02960172	      0.00889628	      0.10038283	      0.07224473	     -0.03758534	     -0.01814571	     -0.03216300	      0.00545189	     -0.07001202	     -0.07797313	      0.00000079	     -0.32847694	      0.00000060	     -0.00000086	    396.22000435	    418.00779380	     44.50430097	    -28.25696761	      9.89130898	    159.23148965	   -396.22000435	   -418.00779380	    -44.50430097	     12.65013007	    -11.78667313	     -2.48218518	    367.33563591	    544.50576741	     10.57598569	      7.89314238	     -7.78238966	    145.70043964	   -367.33563591	   -544.50576741	    -10.57598569	    -10.08615501	      6.40181408	      1.54853603	    -25.09939271	   -185.83978522	     70.88729969	     -4.72467902	      1.41252653	      2.04125354	     25.09939271	    185.83978522	    -70.88729969	     32.48338868	     -0.62791392	      9.84435921	      0.00000000	      0.00000000	      0.00000000	      0.00000000	      0.00000000	      0.00000000	      0.00000000	      0.00000000	      0.00000000	      0.00000000	      0.00000000	      0.00000000	    577.66897124	    656.91236221	      0.00000000	    200.47796523
      0.13509130	      0.00881938	      0.01008715	     39.12350992	     16.57163016	      8.76057782	    452.80177435	    320.83794599	      0.00000000	      0.00000000	      0.00000000	     -0.75439245	      0.00000000	      0.00000000	      0.00000000	      0.00000000	      0.00000001	      0.00000000	      0.03193346	      0.02528972	      0.03424035	      0.03206172	      0.05778327	      0.05870442	      0.05681949	      0.05628205	      0.05236565	      0.04824224	      0.01525851	      0.01651186	      0.06550154	      0.04489616	      0.02992885	      0.00921917	      0.10114242	      0.07273600	     -0.03737870	     -0.01821394	     -0.03249737	      0.00544594	     -0.07018899	     -0.07833863	      0.00000079	     -0.32847694	      0.00000060	     -0.00000086	    400.64955198	    415.87110191	     44.12657010	    -28.04040334	      9.97216581	    161.06099882	   -400.64955198	   -415.87110191	    -44.12657010	     12.56393295	    -11.87559972	     -2.60263540	    373.46160935	    542.60591107	     10.63497874	      7.77995568	     -7.85991992	    148.18891697	   -373.46160935	   -542.60591107	    -10.63497874	    -10.00990938	      6.46223665	      1.42993439	    -25.82227591	   -186.77726096	     71.16445315	     -4.73802367	      1.43451378	      2.05543807	     25.82227591	    186.77726096	    -71.16445315	     32.60502689	     -0.64332324	     10.13275152	      0.00000000	      0.00000000	      0.00000000	      0.00000000	      0.00000000	      0.00000000	      0.00000000	      0.00000000	      0.00000000	      0.00000000	      0.00000000	      0.00000000	    579.15109522	    658.79272246	      0.00000000	    201.53638515
      0.13548844	      0.00886072	      0.01014434	     39.30983183	     16.65301395	      8.79600450	    456.91164886	    322.97346327	      0.00000000	      0.00000000	      0.00000000	     -0.84269364	      0.00000000	      0.00000000	      0.00000000	      0.00000000	      0.00000001	      0.00000000	      0.03194343	      0.02529770	      0.03426389	      0.03207632	      0.05779542	      0.05870013	      0.05679969	      0.05628162	      0.05235560	      0.04822305	      0.01525851	      0.01651186	      0.06550154	      0.04489616	      0.03025041	      0.00953744	      0.10189925	      0.07322469	     -0.03717621	     -0.01828582	     -0.03283452	      0.00543833	     -0.07036746	     -0.07870536	      0.00000079	     -0.32847694	      0.00000060	     -0.00000086	    401.45762978	    416.50457478	     45.80657854	    -28.73451717	      9.99839827	    161.36269628	   -401.45762978	   -416.50457478	    -45.80657854	     12.61026251	    -11.92299410	     -2.54690474	    379.41121617	    546.42693253	      8.80890440	      8.48493649	     -7.93783854	    150.53411894	   -379.41121617	   -546.42693253	     -8.80890440	    -10.01111126	      6.54728085	      1.45822172	    -26.38183131	   -188.26022231	     71.75882960	     -4.76959516	      1.45961879	      2.08562878	     26.38183131	    188.26022231	    -71.75882960	     32.86810257	     -0.65729196	     10.34958393	      0.00000000	      0.00000000	      0.00000000	      0.00000000	      0.00000000	      0.00000000	      0.00000000	      0.00000000	      0.00000000	      0.00000000	      0.00000000	      0.00000000	    580.29521105	    665.29156041	      0.00000000	    203.19262279
      0.13588559	      0.00890200	      0.01020172	     39.49633796	     16.95320151	      9.00357958	    461.03160203	    325.14556965	      0.00000000	      0.00000000	      0.00000000	     -0.61833200	      0.00000000	      0.00000000	      0.00000000	      0.00000000	      0.00000001	      0.00000000	      0.03195344	      0.02530574	      0.03428739	      0.03209091	      0.05780750	      0.05869578	      0.05677990	      0.05628124	      0.05234561	      0.04820392	      0.01525851	      0.01651186	      0.06550154	      0.04489616	      0.03057334	      0.00985864	      0.10265507	      0.07371267	     -0.03697500	     -0.01835856	     -0.03317164	      0.00543149	     -0.07054495	     -0.07907079	      0.00000079	     -0.32847694	      0.00000060	     -0.00000086	    401.90793305	    415.89988090	     47.99383512	    -29.60971668	     10.02113306	    161.53049876	   -401.90793305	   -415.89988090	    -47.99383512	     12.63919216	    -11.97218863	     -2.50940375	    384.20299355	    546.53195330	      6.71255907	      9.25434799	     -7.99127626	    152.44033830	   -384.20299355	   -546.53195330	     -6.71255907	     -9.98591106	      6.61561762	      1.43691051	    -27.22227970	   -189.54074945	     72.38205734	     -4.80031926	      1.48793244	      2.10271138	     27.22227970	    189.54074945	    -72.38205734	     33.14067085	     -0.67494169	     10.68476506	      0.00000000	      0.00000000	      0.00000000	      0.00000000	      0.00000000	      0.00000000	      0.00000000	      0.00000000	      0.00000000	      0.00000000	      0.00000000	      0.00000000	    580.34998561	    668.09742903	      0.00000000	    204.70933159
